<?xml version="1.0" encoding="UTF-8" standalone="no"?>
<!-- Created with Inkscape (http://www.inkscape.org/) -->

<svg
   width="217.61575mm"
   height="54.285938mm"
   viewBox="0 0 217.61575 54.285938"
   version="1.1"
   id="svg5"
   xml:space="preserve"
   inkscape:version="1.2.2 (732a01da63, 2022-12-09)"
   sodipodi:docname="logo red.svg"
   xmlns:inkscape="http://www.inkscape.org/namespaces/inkscape"
   xmlns:sodipodi="http://sodipodi.sourceforge.net/DTD/sodipodi-0.dtd"
   xmlns="http://www.w3.org/2000/svg"
   xmlns:svg="http://www.w3.org/2000/svg"><sodipodi:namedview
     id="namedview7"
     pagecolor="#ffffff"
     bordercolor="#999999"
     borderopacity="1"
     inkscape:showpageshadow="0"
     inkscape:pageopacity="0"
     inkscape:pagecheckerboard="0"
     inkscape:deskcolor="#d1d1d1"
     inkscape:document-units="mm"
     showgrid="false"
     inkscape:zoom="0.2102413"
     inkscape:cx="409.05378"
     inkscape:cy="228.30909"
     inkscape:window-width="1024"
     inkscape:window-height="697"
     inkscape:window-x="-8"
     inkscape:window-y="-8"
     inkscape:window-maximized="1"
     inkscape:current-layer="svg5"><inkscape:page
       x="0"
       y="0"
       width="217.61575"
       height="54.285938"
       id="page554" /><inkscape:page
       x="7.9004558e-06"
       y="-0.13310516"
       width="218.36946"
       height="54.680557"
       id="page556" /></sodipodi:namedview><defs
     id="defs2"><clipPath
       clipPathUnits="userSpaceOnUse"
       id="clipPath320"><path
         d="m 75.61539,76.47006 -0.20682,0.8086 c 12.36234,5.04866 22.25244,16.96174 22.25244,30.69474 0,21.2037 -13.80432,35.7434 -48.62476,35.7434 H 38.62851 v -26.2523 h 7.72984 c 12.568,0 18.74878,-5.0483 18.74878,-14.9429 0,-8.48203 -6.79894,-15.14562 -19.16127,-15.14562 H 38.62851 V 60.92091 h 9.9964 c 14.21565,0 22.25129,-5.251 22.25129,-15.75148 0,-10.50275 -7.00461,-16.35775 -18.95561,-16.35775 H 38.62851 V 2.356616 h 13.29208 c 34.82044,0 51.50951,14.943264 51.50951,40.994784 0,15.54914 -11.33249,29.88803 -27.81471,33.11866"
         clip-rule="evenodd"
         id="path318" /></clipPath><clipPath
       clipPathUnits="userSpaceOnUse"
       id="clipPath326"><path
         d="M 0,0 H 619 V 155 H 0 Z"
         id="path324" /></clipPath><clipPath
       clipPathUnits="userSpaceOnUse"
       id="clipPath336"><path
         d="M 0,135.6403 V 10.43515 C 0,4.780607 2.473007,2.356692 8.242072,2.356692 H 29.4242 V 143.7169 H 8.242072 C 2.473007,143.7169 0,141.2949 0,135.6403"
         clip-rule="evenodd"
         id="path334" /></clipPath><clipPath
       clipPathUnits="userSpaceOnUse"
       id="clipPath342"><path
         d="M 0,0 H 619 V 155 H 0 Z"
         id="path340" /></clipPath><clipPath
       clipPathUnits="userSpaceOnUse"
       id="clipPath352"><path
         d="m 209.9545,101.9156 c 0,4.2401 -3.7085,6.4613 -12.3623,6.4613 h -5.7691 c -8.6526,0 -12.3612,-2.2212 -12.3612,-6.4613 V 67.45306 c 0.3628,-18.34905 0.969,-36.92157 1.9573,-52.85803 1.0457,-5.380482 1.9142,-12.440828 7.9321,-12.440828 5.1509,0 23.0762,1.615314 23.0762,6.463144 0,4.240054 -2.473,8.482004 -2.473,29.282144 z"
         clip-rule="evenodd"
         id="path350" /></clipPath><clipPath
       clipPathUnits="userSpaceOnUse"
       id="clipPath358"><path
         d="M 0,0 H 619 V 155 H 0 Z"
         id="path356" /></clipPath><clipPath
       clipPathUnits="userSpaceOnUse"
       id="clipPath368"><path
         d="m 162.9789,25.37834 c -9.0652,0 -12.3624,4.64511 -12.3624,12.52123 v 64.01613 c 0,4.2397 -3.7085,6.4612 -12.3619,6.4612 h -5.7691 c -8.6526,0 -12.3612,-2.2215 -12.3612,-6.4612 V 33.45679 c 0,-22.41545 9.6833,-32.7154879 30.2866,-32.7154879 8.9099,0 16.8966,3.4035229 23.0119,7.9372749 l -0.4822,20.399613 c -2.6733,-2.13399 -5.9952,-3.69985 -9.9617,-3.69985"
         clip-rule="evenodd"
         id="path366" /></clipPath><clipPath
       clipPathUnits="userSpaceOnUse"
       id="clipPath374"><path
         d="M 0,0 H 619 V 155 H 0 Z"
         id="path372" /></clipPath><clipPath
       clipPathUnits="userSpaceOnUse"
       id="clipPath384"><path
         d="m 253.0201,108.3768 h -5.7691 c -8.6526,0 -12.3612,-2.2212 -12.3612,-6.4613 V 8.414554 c 0,-4.23968 3.7086,-6.461257 12.3612,-6.461257 h 5.7691 c 8.6538,0 12.3623,2.221577 12.3623,6.461257 V 101.9155 c 0,4.2401 -3.7085,6.4613 -12.3623,6.4613"
         clip-rule="evenodd"
         id="path382" /></clipPath><clipPath
       clipPathUnits="userSpaceOnUse"
       id="clipPath390"><path
         d="M 0,0 H 619 V 155 H 0 Z"
         id="path388" /></clipPath><clipPath
       clipPathUnits="userSpaceOnUse"
       id="clipPath400"><path
         d="m 253.0201,154.6227 h -5.7691 c -8.6526,0 -12.3612,-2.2212 -12.3612,-6.4613 v -16.3578 c 0,-4.2419 3.7086,-6.4631 12.3612,-6.4631 h 5.7691 c 8.6538,0 12.3623,2.2212 12.3623,6.4631 v 16.3578 c 0,4.2401 -3.7085,6.4613 -12.3623,6.4613"
         clip-rule="evenodd"
         id="path398" /></clipPath><clipPath
       clipPathUnits="userSpaceOnUse"
       id="clipPath406"><path
         d="M 0,0 H 619 V 155 H 0 Z"
         id="path404" /></clipPath><clipPath
       clipPathUnits="userSpaceOnUse"
       id="clipPath416"><path
         d="m 349.6544,109.5888 c -8.051,0 -15.3457,-2.781 -21.191,-6.6606 l 0.6147,-20.30221 c 2.2885,1.39637 4.9572,2.32577 8.0083,2.32577 9.0651,0 12.3612,-4.64511 12.3612,-12.52086 V 8.414781 c 0,-4.240058 3.7097,-6.461257 12.3623,-6.461257 h 5.7691 c 8.6534,0 12.3619,2.221199 12.3619,6.461257 V 76.8733 c 0,22.41772 -9.6832,32.7155 -30.2865,32.7155"
         clip-rule="evenodd"
         id="path414" /></clipPath><clipPath
       clipPathUnits="userSpaceOnUse"
       id="clipPath422"><path
         d="M 0,0 H 619 V 155 H 0 Z"
         id="path420" /></clipPath><clipPath
       clipPathUnits="userSpaceOnUse"
       id="clipPath432"><path
         d="m 310.7141,107.3675 c -5.1509,0 -23.0762,-1.6153 -23.0762,-6.4613 0,-4.0392 2.4718,-8.28115 2.4718,-28.47541 V 8.414668 c 0,-4.240059 3.7086,-6.461257 12.3623,-6.461257 h 5.7691 c 8.6534,0 12.362,2.221198 12.362,6.461257 V 73.23939 c 0.0312,0.05814 0.0681,0.1208 0.1001,0.17931 -0.8419,11.3861 -1.9149,20.99871 -3.2803,27.5883 -1.0171,3.4307 -2.7407,6.3605 -6.7088,6.3605"
         clip-rule="evenodd"
         id="path430" /></clipPath><clipPath
       clipPathUnits="userSpaceOnUse"
       id="clipPath438"><path
         d="M 0,0 H 619 V 155 H 0 Z"
         id="path436" /></clipPath><clipPath
       clipPathUnits="userSpaceOnUse"
       id="clipPath448"><path
         d="m 465.2451,109.5888 c -7.6112,0 -14.4367,-2.3779 -20.0529,-5.9456 -0.2165,-4.49902 -0.5292,-11.98858 -0.7333,-21.13876 2.3336,1.46733 5.0754,2.44732 8.2182,2.44732 9.0651,0 13.1861,-4.64511 13.1861,-12.52086 V 8.414781 c 0,-4.240058 3.7086,-6.461257 12.3624,-6.461257 h 5.7679 c 8.6538,0 12.3623,2.221199 12.3623,6.461257 V 76.8733 c 0,22.41772 -10.5075,32.7155 -31.1107,32.7155"
         clip-rule="evenodd"
         id="path446" /></clipPath><clipPath
       clipPathUnits="userSpaceOnUse"
       id="clipPath454"><path
         d="M 0,0 H 619 V 155 H 0 Z"
         id="path452" /></clipPath><clipPath
       clipPathUnits="userSpaceOnUse"
       id="clipPath464"><path
         d="m 436.1939,148.1614 c 0,4.2401 -3.7086,6.4613 -12.3624,6.4613 h -5.7691 c -8.6522,0 -12.3611,-2.2212 -12.3611,-6.4613 V 8.414668 c 0,-4.240059 3.7089,-6.461257 12.3611,-6.461257 h 5.7691 c 7.1687,0 10.9007,1.546987 11.9853,4.480524 l 0.4248,89.477235 c -0.0154,-0.01812 -0.0323,-0.03548 -0.0477,-0.0536 z"
         clip-rule="evenodd"
         id="path462" /></clipPath><clipPath
       clipPathUnits="userSpaceOnUse"
       id="clipPath470"><path
         d="M 0,0 H 619 V 155 H 0 Z"
         id="path468" /></clipPath><clipPath
       clipPathUnits="userSpaceOnUse"
       id="clipPath480"><path
         d="m 516.9373,55.26644 c 0,-33.40593 15.6711,-52.536403 45.3611,-54.3465058 V 24.89748 c -9.9082,2.37031 -14.456,12.75792 -14.456,30.36896 0,17.61104 4.5478,27.84426 14.456,30.17569 v 23.96957 c -29.69,-1.7919 -45.3611,-20.74121 -45.3611,-54.14526"
         clip-rule="evenodd"
         id="path478" /></clipPath><clipPath
       clipPathUnits="userSpaceOnUse"
       id="clipPath486"><path
         d="M 0,0 H 619 V 155 H 0 Z"
         id="path484" /></clipPath><clipPath
       clipPathUnits="userSpaceOnUse"
       id="clipPath496"><path
         d="M 571.5026,109.4196 V 85.48739 c 10.0064,-2.2412 14.4559,-12.4933 14.4559,-30.22098 0,-17.72769 -4.4495,-28.13569 -14.4559,-30.41502 V 0.9123465 c 29.8024,1.7357365 45.361,20.8730035 45.361,54.3540635 0,33.47917 -15.5586,52.43489 -45.361,54.15319"
         clip-rule="evenodd"
         id="path494" /></clipPath><clipPath
       clipPathUnits="userSpaceOnUse"
       id="clipPath502"><path
         d="M 0,0 H 619 V 155 H 0 Z"
         id="path500" /></clipPath></defs><g
     inkscape:label="Layer 1"
     inkscape:groupmode="layer"
     id="layer1"
     transform="translate(-78.045314,-128.1279)" /><g
     id="g314"
     transform="matrix(0.35277776,0,0,-0.35277778,0,54.547453)"><g
       id="g316"
       clip-path="url(#clipPath320)"><g
         id="g322"
         clip-path="url(#clipPath326)"><path
           d="m 33.62851,-2.643384 h 74.80156 V 148.71682 H 33.62851 Z"
           style="fill:#ff5252;fill-opacity:1;fill-rule:nonzero;stroke:none"
           id="path328" /></g></g></g><g
     id="g330"
     transform="matrix(0.35277776,0,0,-0.35277778,0,54.547453)"><g
       id="g332"
       clip-path="url(#clipPath336)"><g
         id="g338"
         clip-path="url(#clipPath342)"><path
           d="M -5,-2.643308 H 34.4242 V 148.71689 H -5 Z"
           style="fill:#ff5252;fill-opacity:1;fill-rule:nonzero;stroke:none"
           id="path344" /></g></g></g><g
     id="g346"
     transform="matrix(0.35277776,0,0,-0.35277778,0,54.547453)"><g
       id="g348"
       clip-path="url(#clipPath352)"><g
         id="g354"
         clip-path="url(#clipPath358)"><path
           d="m 174.4619,-2.845798 h 42.96559 V 113.3769 H 174.4619 Z"
           style="fill:#ff5252;fill-opacity:1;fill-rule:nonzero;stroke:none"
           id="path360" /></g></g></g><g
     id="g362"
     transform="matrix(0.35277776,0,0,-0.35277778,0,54.547453)"><g
       id="g364"
       clip-path="url(#clipPath368)"><g
         id="g370"
         clip-path="url(#clipPath374)"><path
           d="m 115.1243,-4.258698 h 63.29848 V 113.3769 H 115.1243 Z"
           style="fill:#ff5252;fill-opacity:1;fill-rule:nonzero;stroke:none"
           id="path376" /></g></g></g><g
     id="g378"
     transform="matrix(0.35277776,0,0,-0.35277778,0,54.547453)"><g
       id="g380"
       clip-path="url(#clipPath384)"><g
         id="g386"
         clip-path="url(#clipPath390)"><path
           d="m 229.8898,-3.046703 h 40.49259 V 113.3768 H 229.8898 Z"
           style="fill:#ff5252;fill-opacity:1;fill-rule:nonzero;stroke:none"
           id="path392" /></g></g></g><g
     id="g394"
     transform="matrix(0.35277776,0,0,-0.35277778,0,54.547453)"><g
       id="g396"
       clip-path="url(#clipPath400)"><g
         id="g402"
         clip-path="url(#clipPath406)"><path
           d="m 229.8898,120.3405 h 40.49259 v 39.28215 H 229.8898 Z"
           style="fill:#ff5252;fill-opacity:1;fill-rule:nonzero;stroke:none"
           id="path408" /></g></g></g><g
     id="g410"
     transform="matrix(0.35277776,0,0,-0.35277778,0,54.547453)"><g
       id="g412"
       clip-path="url(#clipPath416)"><g
         id="g418"
         clip-path="url(#clipPath422)"><path
           d="m 323.4634,-3.046476 h 61.47752 V 114.58882 H 323.4634 Z"
           style="fill:#ff5252;fill-opacity:1;fill-rule:nonzero;stroke:none"
           id="path424" /></g></g></g><g
     id="g426"
     transform="matrix(0.35277776,0,0,-0.35277778,0,54.547453)"><g
       id="g428"
       clip-path="url(#clipPath432)"><g
         id="g434"
         clip-path="url(#clipPath438)"><path
           d="m 282.6379,-3.046589 h 43.06535 V 112.36751 H 282.6379 Z"
           style="fill:#ff5252;fill-opacity:1;fill-rule:nonzero;stroke:none"
           id="path440" /></g></g></g><g
     id="g442"
     transform="matrix(0.35277776,0,0,-0.35277778,0,54.547453)"><g
       id="g444"
       clip-path="url(#clipPath448)"><g
         id="g450"
         clip-path="url(#clipPath454)"><path
           d="m 439.4589,-3.046476 h 61.89694 V 114.58882 H 439.4589 Z"
           style="fill:#ff5252;fill-opacity:1;fill-rule:nonzero;stroke:none"
           id="path456" /></g></g></g><g
     id="g458"
     transform="matrix(0.35277776,0,0,-0.35277778,0,54.547453)"><g
       id="g460"
       clip-path="url(#clipPath464)"><g
         id="g466"
         clip-path="url(#clipPath470)"><path
           d="m 400.7013,-3.046589 h 40.54034 V 159.62271 H 400.7013 Z"
           style="fill:#ff5252;fill-opacity:1;fill-rule:nonzero;stroke:none"
           id="path472" /></g></g></g><g
     id="g474"
     transform="matrix(0.35277776,0,0,-0.35277778,0,54.547453)"><g
       id="g476"
       clip-path="url(#clipPath480)"><g
         id="g482"
         clip-path="url(#clipPath486)"><path
           d="m 511.9373,-4.080066 h 55.36105 V 114.41173 H 511.9373 Z"
           style="fill:#ff5252;fill-opacity:1;fill-rule:nonzero;stroke:none"
           id="path488" /></g></g></g><g
     id="g490"
     transform="matrix(0.35277776,0,0,-0.35277778,0,54.547453)"><g
       id="g492"
       clip-path="url(#clipPath496)"><g
         id="g498"
         clip-path="url(#clipPath502)"><path
           d="m 566.5026,-4.087654 h 55.36105 V 114.41965 H 566.5026 Z"
           style="fill:#ff5252;fill-opacity:1;fill-rule:nonzero;stroke:none"
           id="path504" /></g></g></g></svg>
